<mxfile host="65bd71144e">
    <diagram id="kb6ERmdoE3fj__gCxbpV" name="Page-1">
        <mxGraphModel dx="1862" dy="723" grid="1" gridSize="10" guides="1" tooltips="1" connect="1" arrows="1" fold="1" page="0" pageScale="1" pageWidth="827" pageHeight="1169" math="0" shadow="0">
            <root>
                <mxCell id="0"/>
                <mxCell id="1" parent="0"/>
                <mxCell id="18" value="" style="endArrow=none;dashed=1;html=1;entryX=0.5;entryY=1;entryDx=0;entryDy=0;" parent="1" edge="1">
                    <mxGeometry width="50" height="50" relative="1" as="geometry">
                        <mxPoint x="-210.5" y="370" as="sourcePoint"/>
                        <mxPoint x="-210.5" y="20" as="targetPoint"/>
                    </mxGeometry>
                </mxCell>
                <mxCell id="16" value="" style="endArrow=none;dashed=1;html=1;entryX=0.5;entryY=1;entryDx=0;entryDy=0;" parent="1" target="2" edge="1">
                    <mxGeometry width="50" height="50" relative="1" as="geometry">
                        <mxPoint x="-510" y="370" as="sourcePoint"/>
                        <mxPoint x="-120" y="160" as="targetPoint"/>
                    </mxGeometry>
                </mxCell>
                <mxCell id="2" value="Task()" style="rounded=0;whiteSpace=wrap;html=1;" parent="1" vertex="1">
                    <mxGeometry x="-570" y="-40" width="120" height="60" as="geometry"/>
                </mxCell>
                <mxCell id="3" value="user operation" style="rounded=0;whiteSpace=wrap;html=1;" parent="1" vertex="1">
                    <mxGeometry x="-270" y="-40" width="120" height="60" as="geometry"/>
                </mxCell>
                <mxCell id="8" value="" style="rounded=0;whiteSpace=wrap;html=1;rotation=90;" parent="1" vertex="1">
                    <mxGeometry x="-650" y="180" width="280" height="20" as="geometry"/>
                </mxCell>
                <mxCell id="10" value="" style="rounded=0;whiteSpace=wrap;html=1;rotation=90;" parent="1" vertex="1">
                    <mxGeometry x="-347.5" y="177.5" width="275" height="20" as="geometry"/>
                </mxCell>
                <mxCell id="17" value="" style="endArrow=classic;html=1;exitX=0.093;exitY=0.95;exitDx=0;exitDy=0;entryX=0.104;entryY=-0.075;entryDx=0;entryDy=0;exitPerimeter=0;entryPerimeter=0;" parent="1" edge="1">
                    <mxGeometry width="50" height="50" relative="1" as="geometry">
                        <mxPoint x="-209" y="226.03999999999996" as="sourcePoint"/>
                        <mxPoint x="-508.5" y="228.5999999999999" as="targetPoint"/>
                    </mxGeometry>
                </mxCell>
                <mxCell id="20" value="chGetへの送信を待機（GetKey()の実行を待機）" style="text;html=1;strokeColor=none;fillColor=none;align=center;verticalAlign=middle;whiteSpace=wrap;rounded=0;" parent="1" vertex="1">
                    <mxGeometry x="-490" y="190" width="270" height="30" as="geometry"/>
                </mxCell>
                <mxCell id="23" value="chGet&amp;lt;-trueにより、GetKey()が実行されたことを通知" style="html=1;verticalAlign=bottom;endArrow=open;dashed=1;endSize=8;entryX=0.25;entryY=1;entryDx=0;entryDy=0;exitX=0.25;exitY=0;exitDx=0;exitDy=0;" parent="1" edge="1">
                    <mxGeometry x="0.0003" y="-30" relative="1" as="geometry">
                        <mxPoint x="-510" y="268.75" as="sourcePoint"/>
                        <mxPoint x="-210" y="270" as="targetPoint"/>
                        <mxPoint as="offset"/>
                    </mxGeometry>
                </mxCell>
                <mxCell id="25" value="&lt;span style=&quot;font-size: 12px&quot;&gt;chへの送信を待機（&lt;/span&gt;pushButton()の実行を待機）" style="html=1;verticalAlign=bottom;endArrow=block;entryX=0.098;entryY=-0.075;entryDx=0;entryDy=0;entryPerimeter=0;" parent="1" target="8" edge="1">
                    <mxGeometry x="0.0053" y="-7" width="80" relative="1" as="geometry">
                        <mxPoint x="-220" y="77" as="sourcePoint"/>
                        <mxPoint x="110.5" y="301.0799999999999" as="targetPoint"/>
                        <mxPoint as="offset"/>
                    </mxGeometry>
                </mxCell>
                <mxCell id="26" value="ch&amp;lt;-trueにより、pushButton()が実行されたことを通知" style="html=1;verticalAlign=bottom;endArrow=open;dashed=1;endSize=8;entryX=0.25;entryY=1;entryDx=0;entryDy=0;" parent="1" edge="1">
                    <mxGeometry x="0.0004" y="-30" relative="1" as="geometry">
                        <mxPoint x="-500" y="120" as="sourcePoint"/>
                        <mxPoint x="-220" y="120.47" as="targetPoint"/>
                        <mxPoint as="offset"/>
                    </mxGeometry>
                </mxCell>
            </root>
        </mxGraphModel>
    </diagram>
</mxfile>